# xmcd
#
# Track frame offsets: 
#        150
#        13467
#        28872
#        56344
#        73400
#        83392
#        96877
#        123492
#        142705
#        169205
#        200697
#        214437
#        231840
#
# Disc length: 3674 seconds
#
# Revision: 4
# Processed by: cddbd v1.5.2PL0 Copyright (c) Steve Scherf et al.
# Submitted via: ExactAudioCopy v1.1
#
DISCID=bd0e580d
DTITLE=Cuby and Blizzards - Travelling With The Blues
DYEAR=1997
DGENRE=Blues
TTITLE0=Another Day, Another Road
TTITLE1=Just For Fun
TTITLE2=Too Blind To See
TTITLE3=Distant Smile
TTITLE4=Appleknockers Flophouse
TTITLE5=For Real
TTITLE6=Somebody Will Know Someday
TTITLE7=No News Is Good News
TTITLE8=Brother Booze
TTITLE9=Five Long Years
TTITLE10=Travelling With The Blues
TTITLE11=The Zoo
TTITLE12=Hobo Blues
EXTD=
EXTT0=
EXTT1=
EXTT2=
EXTT3=
EXTT4=
EXTT5=
EXTT6=
EXTT7=
EXTT8=
EXTT9=
EXTT10=
EXTT11=
EXTT12=
PLAYORDER=
